<?xml version="1.0" standalone="no"?>
<svg xmlns="http://www.w3.org/2000/svg" xmlns:xlink="http://www.w3.org/1999/xlink" width="838pt" height="315pt" viewBox="0.00 0.00 838.08 314.57">
<g id="graph0" class="graph" transform="translate(4,310.57000732421875) scale(1)" data-name="StakeholderMap">

<polygon fill="white" stroke="none" points="-4,4 -4,-310.57 834.08,-310.57 834.08,4 -4,4" style=""/>
<!-- BusinessAnalyst -->
<g id="node1" class="node" pointer-events="visible" data-name="BusinessAnalyst">

<ellipse fill="lightblue" stroke="black" cx="111.44" cy="-145.77" rx="111.38" ry="29.33" style=""/>
<text text-anchor="middle" x="111.44" y="-149.97" font-family="Helvetica,sans-Serif" font-size="14.00" style="">Business Analyst</text>
<text text-anchor="middle" x="111.44" y="-133.17" font-family="Helvetica,sans-Serif" font-size="14.00" style="">(Requirements Owner)</text>
</g>
<!-- Operations -->
<g id="node2" class="node" pointer-events="visible" data-name="Operations">

<path fill="none" stroke="black" d="M815.1,-296.37C815.1,-296.37 702.97,-296.37 702.97,-296.37 696.97,-296.37 690.97,-290.37 690.97,-284.37 690.97,-284.37 690.97,-267.17 690.97,-267.17 690.97,-261.17 696.97,-255.17 702.97,-255.17 702.97,-255.17 815.1,-255.17 815.1,-255.17 821.1,-255.17 827.1,-261.17 827.1,-267.17 827.1,-267.17 827.1,-284.37 827.1,-284.37 827.1,-290.37 821.1,-296.37 815.1,-296.37" style=""/>
<text text-anchor="middle" x="759.04" y="-279.97" font-family="Helvetica,sans-Serif" font-size="14.00" style="">Operations Team</text>
<text text-anchor="middle" x="759.04" y="-263.17" font-family="Helvetica,sans-Serif" font-size="14.00" style="">(Day-to-Day Users)</text>
</g>
<!-- BusinessAnalyst&#45;&gt;Operations -->
<g id="edge1" class="edge" data-name="BusinessAnalyst-&gt;Operations">

<path fill="none" stroke="black" d="M144.47,-174.21C169.16,-194.63 205.03,-221.2 240.88,-236.77 385.56,-299.6 574.4,-294.7 679.21,-285.35" style=""/>
<polygon fill="black" stroke="black" points="679.5,-288.84 689.13,-284.42 678.85,-281.87 679.5,-288.84" style=""/>
<text text-anchor="middle" x="462.65" y="-293.97" font-family="Times,serif" font-size="14.00" style="">Gathers AS-IS/TO-BE flows</text>
</g>
<!-- IT -->
<g id="node3" class="node" pointer-events="visible" data-name="IT">

<path fill="none" stroke="black" d="M513.07,-256.37C513.07,-256.37 412.22,-256.37 412.22,-256.37 406.22,-256.37 400.22,-250.37 400.22,-244.37 400.22,-244.37 400.22,-227.17 400.22,-227.17 400.22,-221.17 406.22,-215.17 412.22,-215.17 412.22,-215.17 513.07,-215.17 513.07,-215.17 519.07,-215.17 525.07,-221.17 525.07,-227.17 525.07,-227.17 525.07,-244.37 525.07,-244.37 525.07,-250.37 519.07,-256.37 513.07,-256.37" style=""/>
<text text-anchor="middle" x="462.65" y="-239.97" font-family="Helvetica,sans-Serif" font-size="14.00" style="">IT/Tech Team</text>
<text text-anchor="middle" x="462.65" y="-223.17" font-family="Helvetica,sans-Serif" font-size="14.00" style="">(System Support)</text>
</g>
<!-- BusinessAnalyst&#45;&gt;IT -->
<g id="edge2" class="edge" data-name="BusinessAnalyst-&gt;IT">

<path fill="none" stroke="black" d="M180.04,-169.3C199.55,-175.71 220.96,-182.36 240.88,-187.77 289.7,-201.02 345.37,-213.1 388.59,-221.83" style=""/>
<polygon fill="black" stroke="black" points="387.88,-225.26 398.38,-223.79 389.26,-218.4 387.88,-225.26" style=""/>
<text text-anchor="middle" x="302.32" y="-219.97" font-family="Times,serif" font-size="14.00" style="">Validates feasibility</text>
</g>
<!-- Finance -->
<g id="node4" class="node" pointer-events="visible" data-name="Finance">

<path fill="none" stroke="black" d="M530.89,-196.37C530.89,-196.37 394.41,-196.37 394.41,-196.37 388.41,-196.37 382.41,-190.37 382.41,-184.37 382.41,-184.37 382.41,-167.17 382.41,-167.17 382.41,-161.17 388.41,-155.17 394.41,-155.17 394.41,-155.17 530.89,-155.17 530.89,-155.17 536.89,-155.17 542.89,-161.17 542.89,-167.17 542.89,-167.17 542.89,-184.37 542.89,-184.37 542.89,-190.37 536.89,-196.37 530.89,-196.37" style=""/>
<text text-anchor="middle" x="462.65" y="-179.97" font-family="Helvetica,sans-Serif" font-size="14.00" style="">Finance Dept.</text>
<text text-anchor="middle" x="462.65" y="-163.17" font-family="Helvetica,sans-Serif" font-size="14.00" style="">(Compliance &amp; Budget)</text>
</g>
<!-- BusinessAnalyst&#45;&gt;Finance -->
<g id="edge3" class="edge" data-name="BusinessAnalyst-&gt;Finance">

<path fill="none" stroke="black" d="M217.69,-154.81C266.48,-159 323.9,-163.94 370.78,-167.96" style=""/>
<polygon fill="black" stroke="black" points="370.37,-171.44 380.64,-168.81 370.97,-164.47 370.37,-171.44" style=""/>
<text text-anchor="middle" x="302.32" y="-170.97" font-family="Times,serif" font-size="14.00" style="">Aligns on cost &amp; ROI</text>
</g>
<!-- Customers -->
<g id="node5" class="node" pointer-events="visible" data-name="Customers">

<path fill="none" stroke="black" d="M509.28,-136.37C509.28,-136.37 416.02,-136.37 416.02,-136.37 410.02,-136.37 404.02,-130.37 404.02,-124.37 404.02,-124.37 404.02,-107.17 404.02,-107.17 404.02,-101.17 410.02,-95.17 416.02,-95.17 416.02,-95.17 509.28,-95.17 509.28,-95.17 515.28,-95.17 521.28,-101.17 521.28,-107.17 521.28,-107.17 521.28,-124.37 521.28,-124.37 521.28,-130.37 515.28,-136.37 509.28,-136.37" style=""/>
<text text-anchor="middle" x="462.65" y="-119.97" font-family="Helvetica,sans-Serif" font-size="14.00" style="">End Customers</text>
<text text-anchor="middle" x="462.65" y="-103.17" font-family="Helvetica,sans-Serif" font-size="14.00" style="">(External Users)</text>
</g>
<!-- BusinessAnalyst&#45;&gt;Customers -->
<g id="edge4" class="edge" data-name="BusinessAnalyst-&gt;Customers">

<path fill="none" stroke="black" d="M217.69,-136.73C274.23,-131.87 342.37,-126.02 392.24,-121.73" style=""/>
<polygon fill="black" stroke="black" points="392.38,-125.23 402.04,-120.89 391.78,-118.26 392.38,-125.23" style=""/>
<text text-anchor="middle" x="302.32" y="-137.97" font-family="Times,serif" font-size="14.00" style="">Captures pain points</text>
</g>
<!-- Compliance -->
<g id="node6" class="node" pointer-events="visible" data-name="Compliance">

<path fill="none" stroke="black" d="M528.98,-76.37C528.98,-76.37 396.32,-76.37 396.32,-76.37 390.32,-76.37 384.32,-70.37 384.32,-64.37 384.32,-64.37 384.32,-47.17 384.32,-47.17 384.32,-41.17 390.32,-35.17 396.32,-35.17 396.32,-35.17 528.98,-35.17 528.98,-35.17 534.98,-35.17 540.98,-41.17 540.98,-47.17 540.98,-47.17 540.98,-64.37 540.98,-64.37 540.98,-70.37 534.98,-76.37 528.98,-76.37" style=""/>
<text text-anchor="middle" x="462.65" y="-59.97" font-family="Helvetica,sans-Serif" font-size="14.00" style="">Compliance/Legal</text>
<text text-anchor="middle" x="462.65" y="-43.17" font-family="Helvetica,sans-Serif" font-size="14.00" style="">(Regulatory Oversight)</text>
</g>
<!-- BusinessAnalyst&#45;&gt;Compliance -->
<g id="edge5" class="edge" data-name="BusinessAnalyst-&gt;Compliance">

<path fill="none" stroke="black" d="M179,-122.03C198.78,-115.4 220.58,-108.5 240.88,-102.97 283.91,-91.24 332.31,-80.61 372.8,-72.42" style=""/>
<polygon fill="black" stroke="black" points="373.4,-75.87 382.52,-70.47 372.03,-69.01 373.4,-75.87" style=""/>
<text text-anchor="middle" x="302.32" y="-106.97" font-family="Times,serif" font-size="14.00" style="">Ensures policy fit</text>
</g>
<!-- Management -->
<g id="node7" class="node" pointer-events="visible" data-name="Management">

<path fill="none" stroke="black" d="M818.11,-76.37C818.11,-76.37 699.96,-76.37 699.96,-76.37 693.96,-76.37 687.96,-70.37 687.96,-64.37 687.96,-64.37 687.96,-47.17 687.96,-47.17 687.96,-41.17 693.96,-35.17 699.96,-35.17 699.96,-35.17 818.11,-35.17 818.11,-35.17 824.11,-35.17 830.11,-41.17 830.11,-47.17 830.11,-47.17 830.11,-64.37 830.11,-64.37 830.11,-70.37 824.11,-76.37 818.11,-76.37" style=""/>
<text text-anchor="middle" x="759.04" y="-59.97" font-family="Helvetica,sans-Serif" font-size="14.00" style="">Senior Management</text>
<text text-anchor="middle" x="759.04" y="-43.17" font-family="Helvetica,sans-Serif" font-size="14.00" style="">(Project Sponsors)</text>
</g>
<!-- BusinessAnalyst&#45;&gt;Management -->
<g id="edge6" class="edge" data-name="BusinessAnalyst-&gt;Management">

<path fill="none" stroke="black" d="M150.58,-118.12C200.66,-83.84 292.71,-27.64 381.77,-8.97 484.63,12.6 605.53,-10.94 681.97,-31.71" style=""/>
<polygon fill="black" stroke="black" points="680.89,-35.04 691.46,-34.34 682.76,-28.29 680.89,-35.04" style=""/>
<text text-anchor="middle" x="462.65" y="-13.97" font-family="Times,serif" font-size="14.00" style="">Reports progress</text>
</g>
<!-- IT&#45;&gt;Operations -->
<g id="edge7" class="edge" data-name="IT-&gt;Operations">

<path fill="none" stroke="black" d="M525.56,-243.15C566.58,-248.16 621.55,-255.1 670,-261.97 673.16,-262.42 676.38,-262.88 679.63,-263.36" style=""/>
<polygon fill="black" stroke="black" points="678.87,-266.78 689.28,-264.8 679.9,-259.86 678.87,-266.78" style=""/>
<text text-anchor="middle" x="615.76" y="-265.97" font-family="Times,serif" font-size="14.00" style="">System support</text>
</g>
<!-- Finance&#45;&gt;Management -->
<g id="edge8" class="edge" data-name="Finance-&gt;Management">

<path fill="none" stroke="black" d="M520.48,-154.73C528.24,-151.77 536.09,-148.72 543.53,-145.77 596.29,-124.8 655.8,-99.72 698.72,-81.37" style=""/>
<polygon fill="black" stroke="black" points="700.06,-84.6 707.88,-77.45 697.31,-78.17 700.06,-84.6" style=""/>
<text text-anchor="middle" x="615.76" y="-139.97" font-family="Times,serif" font-size="14.00" style="">Budget approval</text>
</g>
<!-- Compliance&#45;&gt;Management -->
<g id="edge9" class="edge" data-name="Compliance-&gt;Management">

<path fill="none" stroke="black" d="M541.38,-55.77C583.04,-55.77 634.34,-55.77 676.56,-55.77" style=""/>
<polygon fill="black" stroke="black" points="676.42,-59.27 686.42,-55.77 676.42,-52.27 676.42,-59.27" style=""/>
<text text-anchor="middle" x="615.76" y="-59.97" font-family="Times,serif" font-size="14.00" style="">Regulatory updates</text>
</g>
</g>
</svg>